<svg width="64" height="64" viewBox="0 0 64 64" xmlns="http://www.w3.org/2000/svg">
  <!-- Background -->
  <rect width="64" height="64" fill="#1e293b" rx="8"/>
  
  <!-- Card -->
  <rect x="10" y="26" width="44" height="28" rx="3" fill="#e5e7eb" stroke="#94a3b8" stroke-width="1.5"/>
  <rect x="10" y="26" width="44" height="8" fill="#3b82f6"/>
  
  <!-- Card details -->
  <rect x="14" y="41" width="19" height="3" rx="0.8" fill="#cbd5e1"/>
  <rect x="14" y="46" width="13" height="2.5" rx="0.8" fill="#cbd5e1"/>
  
  <!-- Chip -->
  <rect x="38" y="38" width="10" height="8" rx="1" fill="#fbbf24" stroke="#f59e0b" stroke-width="1"/>
  <line x1="39" y1="39.5" x2="47" y2="39.5" stroke="#f59e0b" stroke-width="0.5"/>
  <line x1="39" y1="42" x2="47" y2="42" stroke="#f59e0b" stroke-width="0.5"/>
  <line x1="39" y1="44.5" x2="47" y2="44.5" stroke="#f59e0b" stroke-width="0.5"/>
  
  <!-- Contactless waves -->
  <path d="M 22 12 Q 22 16 26 20" fill="none" stroke="#10b981" stroke-width="2.5" stroke-linecap="round"/>
  <path d="M 28 10 Q 28 16 35 23" fill="none" stroke="#10b981" stroke-width="2.5" stroke-linecap="round"/>
  <path d="M 34 8 Q 34 16 44 26" fill="none" stroke="#10b981" stroke-width="2.5" stroke-linecap="round"/>
  
  <!-- Dollar sign -->
  <text x="41" y="51" font-family="Arial, sans-serif" font-size="10" fill="#10b981" font-weight="bold">$</text>
</svg>
